<svg xmlns="http://www.w3.org/2000/svg" viewBox="0 0 800 800" width="800" height="800"><g class="layer"><title>Layer 1</title><path id="svg_1" fill="none" d="M2 0h798v798H2z"/><g id="svg_2"><circle id="svg_3" cx="402" cy="307.74" r="153" fill="url(#centerGlow)" opacity=".8"/><defs transform="matrix(1.7 0 0 1.7 171.69452 109.47036)"><radialGradient id="centerGlow" cx="50%" cy="50%" r="50%"><stop offset="0%" stop-color="#00f0ff"/><stop offset="50%" stop-color="#00f0ff" stop-opacity=".5"/><stop offset="100%" stop-color="#00f0ff" stop-opacity="0"/></radialGradient></defs><path id="svg_4" fill="#0a4d8c" d="m130 409.74 170 85v204l-170-85z"/><path id="svg_5" fill="#06396a" d="m300 494.74 85-42.5v93.5l-85 42.5z"/><path id="svg_6" fill="#00a8cc" d="m130 409.74 85-42.5 170 85-85 42.5z"/><path id="svg_7" fill="#008bb0" d="m504 494.74 170-85v204l-170 85z"/><path id="svg_8" fill="#00a8cc" d="m419 452.24 85 42.5v93.5l-85-42.5z"/><path id="svg_9" fill="#00e5ff" d="m419 452.24 170-85 85 42.5-170 85z"/><g id="svg_10" transform="translate(0 -60)"><path id="svg_11" fill="#0d599e" d="m215 163.24 170 85v136l-170-85z"/><path id="svg_12" fill="#00bad6" d="m385 248.24 170-85v136l-170 85z"/><path id="svg_13" fill="#33f4ff" d="m215 163.24 187-93.5 153 93.5-170 85z"/></g><g id="svg_14" transform="translate(0 40)"><path id="svg_15" fill="#084278" d="m317 171.74 85 42.5v102l-85-42.5z"/><path id="svg_16" fill="#0096b8" d="m402 214.24 85-42.5v102l-85 42.5z"/><path id="svg_17" fill="#00f0ff" d="m317 171.74 85-42.5 85 42.5-85 42.5z"/></g><g id="svg_18" opacity=".9"><path id="svg_19" stroke="#00f0ff" stroke-linecap="round" stroke-width="3" d="M385 350.24v93.5"/><path id="svg_20" stroke="#00f0ff" stroke-linecap="round" stroke-width="3" d="M419 350.24v93.5"/><path id="svg_21" stroke="#33f4ff" stroke-width="2" d="m317 299.24 68 34"/><path id="svg_22" stroke="#33f4ff" stroke-width="2" d="m487 299.24-68 34"/></g></g></g></svg>